<svg version="1.1" xmlns="http://www.w3.org/2000/svg" xmlns:xlink="http://www.w3.org/1999/xlink" width="90.92379" height="83.53259" viewBox="0,0,90.92379,83.53259"><g transform="translate(-200.19767,-136.26976)"><g data-paper-data="{&quot;isPaintingLayer&quot;:true}" fill-rule="nonzero" stroke-linejoin="miter" stroke-miterlimit="10" stroke-dasharray="" stroke-dashoffset="0" style="mix-blend-mode: normal"><path d="M200.19767,180.00003c0,-21.98222 17.82011,-39.80233 39.80233,-39.80233c21.98222,0 39.80233,17.82011 39.80233,39.80233c0,21.98222 -17.82011,39.80233 -39.80233,39.80233c-21.98222,0 -39.80233,-17.82011 -39.80233,-39.80233z" fill="#ffffff" stroke="none" stroke-width="0.5" stroke-linecap="butt"/><path d="M291.12146,150.54549c0,7.41016 -10.6657,13.41727 -23.82251,13.41727c-13.15681,0 -23.82251,-6.00712 -23.82251,-13.41727c0,-7.41016 10.6657,-13.41727 23.82251,-13.41727c13.15681,0 23.82251,6.00712 23.82251,13.41727z" fill="#c3c3c3" stroke="none" stroke-width="0" stroke-linecap="butt"/><text transform="translate(248.10217,158.17529) scale(0.56168,0.56168)" font-size="40" xml:space="preserve" fill="#ffffff" fill-rule="nonzero" stroke="none" stroke-width="1" stroke-linecap="butt" stroke-linejoin="miter" stroke-miterlimit="10" stroke-dasharray="" stroke-dashoffset="0" font-family="Curly" font-weight="normal" text-anchor="start" style="mix-blend-mode: normal"><tspan x="0" dy="0">200</tspan></text><g stroke="#000000" stroke-width="2"><path d="M214.71282,205.61371c0.52022,-1.00358 1.01863,-1.95888 1.30216,-2.4166c0.74654,-1.20516 1.70688,-2.35622 2.45646,-3.56065c3.41516,-5.4875 6.00324,-11.1457 9.46357,-16.62465c1.11081,-1.75881 2.04592,-3.5134 2.9467,-5.28334h8.10959c0.60635,1.01884 1.24639,2.031 1.76378,3.068c3.93822,7.89335 8.69099,15.56393 13.69547,23.22106c0.03139,0.04803 0.4475,0.69472 1.02745,1.59618z" fill="#ffffff" stroke-linecap="butt"/><path d="M249.63546,168.96551c0,8.05189 -6.65207,14.57924 -14.85782,14.57924c-8.20575,0 -14.85782,-6.52734 -14.85782,-14.57923c0,-8.05189 6.65207,-14.57923 14.85782,-14.57923c8.20575,0 14.85782,6.52734 14.85782,14.57924z" fill="#ffffff" stroke-linecap="butt"/><path d="M226.86159,168.49984l2.70941,-4.92554l2.37443,4.92401" fill="none" stroke-linecap="round"/><path d="M237.34138,168.50999c0.57511,-1.33415 2.28722,-5.00335 2.28722,-5.00335l2.61856,5.14139" fill="none" stroke-linecap="round"/><path d="M238.11013,172.47817l-3.26975,3.99636l-3.26976,-3.77838" fill="none" stroke-linecap="round"/></g></g></g></svg>