<svg version="1.1" xmlns="http://www.w3.org/2000/svg" xmlns:xlink="http://www.w3.org/1999/xlink" width="79.60466" height="79.60466" viewBox="0,0,79.60466,79.60466"><g transform="translate(-200.19767,-140.1977)"><g data-paper-data="{&quot;isPaintingLayer&quot;:true}" fill-rule="nonzero" stroke-miterlimit="10" stroke-dasharray="" stroke-dashoffset="0" style="mix-blend-mode: normal"><path d="M200.19767,180.00003c0,-21.98222 17.82011,-39.80233 39.80233,-39.80233c21.98222,0 39.80233,17.82011 39.80233,39.80233c0,21.98222 -17.82011,39.80233 -39.80233,39.80233c-21.98222,0 -39.80233,-17.82011 -39.80233,-39.80233z" fill="#ffffff" stroke="none" stroke-width="0.5" stroke-linecap="butt" stroke-linejoin="miter"/><g><path d="M230.66834,191.62644v0c-0.90117,-1.20866 2.00974,-2.90953 2.43197,-1.17594c0.30784,1.26468 1.48226,3.92234 1.48226,3.92234c0,0 4.25046,-0.39879 4.05385,1.28937c-0.19764,1.68622 -2.67594,0.98689 -2.67594,0.98689c0,0 0.68627,2.85137 -0.35802,3.30529c-1.0443,0.45399 -1.99881,-1.96636 -1.99881,-1.96636c0,0 -0.77234,1.54427 -1.62278,1.10802c-0.42615,-0.21833 -0.26185,-1.6445 0.35396,-2.81604c0.61588,-1.16961 -1.6665,-4.65358 -1.6665,-4.65358z" fill="#7f7f7f" stroke="#000000" stroke-width="1.39668" stroke-linecap="butt" stroke-linejoin="miter"/><path d="M233.12993,172.81059v0c-0.51586,1.41633 -3.53579,-0.08194 -2.31785,-1.3865c0.88838,-0.95163 2.46476,-3.39239 2.46476,-3.39239c0,0 -2.66735,-3.33451 -1.1481,-4.09723c1.51787,-0.7608 2.29365,1.69496 2.29365,1.69496c0,0 2.0063,-2.13891 2.95896,-1.51602c0.9532,0.62482 -0.54569,2.75128 -0.54569,2.75128c0,0 1.71572,-0.20114 1.81767,0.74794c0.05101,0.47619 -1.23134,1.12225 -2.54835,1.2506c-1.31556,0.12738 -2.97504,3.94737 -2.97504,3.94737z" fill="#7f7f7f" stroke="#000000" stroke-width="1.39668" stroke-linecap="butt" stroke-linejoin="miter"/><path d="M246.21396,174.1155v0c-0.51538,1.41633 -3.53483,-0.08201 -2.31785,-1.38657c0.8879,-0.95156 2.46517,-3.39239 2.46517,-3.39239c0,0 -2.66824,-3.33444 -1.14803,-4.09723c1.51739,-0.7608 2.29317,1.69502 2.29317,1.69502c0,0 2.00534,-2.13891 2.95848,-1.51602c0.95417,0.62482 -0.54521,2.75128 -0.54521,2.75128c0,0 1.71565,-0.20114 1.81767,0.74787c0.05101,0.47619 -1.23134,1.12225 -2.54835,1.2506c-1.31556,0.12745 -2.97504,3.94743 -2.97504,3.94743z" fill="#7f7f7f" stroke="#000000" stroke-width="1.39668" stroke-linecap="butt" stroke-linejoin="miter"/><path d="M243.44577,191.93009v0c-1.18398,-0.93299 1.1835,-3.33204 2.04273,-1.76721c0.62537,1.14095 2.44956,3.40249 2.44956,3.40249c0,0 4.0025,-1.49079 4.25128,0.19125c0.24734,1.67874 -2.3272,1.64773 -2.3272,1.64773c0,0 1.40355,2.57516 0.51407,3.2848c-0.89133,0.71109 -2.44303,-1.37853 -2.44303,-1.37853c0,0 -0.34448,1.69255 -1.27796,1.49189c-0.46911,-0.10023 -0.68064,-1.51959 -0.39109,-2.81164c0.29058,-1.28971 -2.81838,-4.0608 -2.81838,-4.0608z" fill="#7f7f7f" stroke="#000000" stroke-width="1.39668" stroke-linecap="butt" stroke-linejoin="miter"/><path d="M253.99017,187.5352c-2.03229,2.50167 -7.63398,5.93517 -18.47467,5.08288c-10.84062,-0.85181 -13.34862,-7.57403 -12.05685,-14.22277c1.29274,-6.64729 7.45408,-9.95891 16.41826,-8.10921c8.43911,2.50414 9.30901,2.64445 12.21661,4.14542c6.83854,3.53036 4.14459,10.33666 1.89665,13.10369v0zM235.51501,192.61808c-10.84062,-0.85181 -13.3491,-7.57403 -12.05637,-14.22325c1.29177,-6.64729 7.4536,-9.95891 16.41777,-8.10921" fill="#7f7f7f" stroke="#000000" stroke-width="1.39668" stroke-linecap="butt" stroke-linejoin="miter"/><path d="M271.41141,191.16537c-1.9544,-1.15312 -2.37065,-2.91606 -2.37065,-2.91606" fill="none" stroke="#000000" stroke-width="0.69834" stroke-linecap="round" stroke-linejoin="miter"/><path d="M273.51072,189.25593c-2.23735,-0.38827 -3.24961,-1.8882 -3.24961,-1.8882" fill="none" stroke="#000000" stroke-width="0.69834" stroke-linecap="round" stroke-linejoin="miter"/><path d="M269.49193,176.64466c0,0 0.37871,-1.77161 2.3098,-2.96446" fill="none" stroke="#000000" stroke-width="0.69834" stroke-linecap="round" stroke-linejoin="miter"/><path d="M270.6579,178.01481c0,0 0.98139,-1.52104 3.21029,-1.95502" fill="none" stroke="#000000" stroke-width="0.69834" stroke-linecap="round" stroke-linejoin="miter"/><path d="M261.27576,190.61831v0c-4.36319,-0.47427 -8.0164,-3.83552 -8.22071,-8.35683c-0.20424,-4.52137 4.98822,-8.43842 7.61405,-8.46606c0,0 2.7651,-1.3181 6.30275,0.79991c1.69132,1.01226 4.99578,3.14711 5.03448,7.99853c0.02791,3.34744 -1.75456,5.1662 -3.60866,6.27951c-4.03082,2.41966 -7.12191,1.74493 -7.12191,1.74493z" fill="#7f7f7f" stroke="#000000" stroke-width="1.39668" stroke-linecap="butt" stroke-linejoin="miter"/><path d="M270.52165,182.71485c-0.0064,-0.62117 0.16059,-1.18604 0.43529,-1.59644c0.2747,-0.41047 0.65706,-0.66696 1.08238,-0.67135c0.42532,-0.0044 0.8129,0.24411 1.09606,0.6488c0.28309,0.40463 0.46176,0.96593 0.46815,1.5871c0.00646,0.62117 -0.16052,1.18604 -0.43522,1.59652c-0.2747,0.41047 -0.65706,0.66696 -1.08238,0.67135c-0.42532,0.0044 -0.8129,-0.24411 -1.09606,-0.6488c-0.28309,-0.4047 -0.46176,-0.966 -0.46822,-1.58717z" fill="#000000" stroke="#000000" stroke-width="1.39668" stroke-linecap="butt" stroke-linejoin="miter"/><g stroke-width="0.69834" stroke-linecap="butt" stroke-linejoin="miter"><path d="M262.30087,178.70864c-0.0064,-0.62117 0.24026,-1.18687 0.64359,-1.59913c0.4038,-0.41178 0.96428,-0.67012 1.58545,-0.67658c0.62117,-0.0064 1.18687,0.24026 1.59913,0.64359c0.41178,0.4038 0.67012,0.96428 0.67658,1.58545c0.0064,0.62117 -0.24026,1.18687 -0.64359,1.59913c-0.4038,0.41178 -0.96428,0.67012 -1.58545,0.67658c-0.62117,0.0064 -1.18694,-0.24026 -1.59913,-0.64359c-0.41178,-0.4038 -0.67012,-0.96428 -0.67658,-1.58545z" fill="#ffffff" stroke="#000000"/><path d="M263.57594,178.1923c-0.00399,-0.38745 0.14979,-0.74044 0.40161,-0.997c0.25133,-0.25703 0.6011,-0.41817 0.98848,-0.42216c0.38738,-0.00399 0.74037,0.14979 0.997,0.40161c0.25703,0.25133 0.4181,0.60103 0.42216,0.98848c0.00399,0.38738 -0.14986,0.74037 -0.40161,0.997c-0.25133,0.25703 -0.6011,0.4181 -0.98848,0.42209c-0.38738,0.00406 -0.74044,-0.14979 -0.997,-0.40161c-0.25703,-0.25126 -0.41817,-0.60103 -0.42216,-0.98841z" fill="#000000" stroke="none"/><g stroke="none"><path d="M262.51556,181.17552c0,0 -3.5934,-2.21735 -0.0517,-4.99723c0,-0.00048 1.14006,2.76551 0.0517,4.99723z" fill="#58595b"/><path d="M263.31196,178.84551c0.01939,1.87796 -0.57855,2.73437 -0.60461,2.77163c-0.1159,0.16155 -0.34118,0.19847 -0.50273,0.08298c-0.16059,-0.11549 -0.19792,-0.3374 -0.0849,-0.49984c0.01134,-0.01698 0.55724,-0.85078 0.46121,-2.70625c-0.09528,-1.78831 -0.42869,-2.228 -0.43213,-2.23233c-0.14065,-0.13825 -0.13666,-0.35816 0.00344,-0.50025c0.13921,-0.14209 0.375,-0.13543 0.51716,0.00378c0.12071,0.11824 0.52246,0.66139 0.63031,2.69107c0.00667,0.13391 0.01093,0.26446 0.01224,0.38923v0v0z" fill="#000000"/></g></g><g stroke-width="0.69834" stroke-linecap="butt" stroke-linejoin="miter"><path d="M262.25887,186.66565c-0.0064,-0.62117 0.24026,-1.18694 0.64359,-1.59913c0.4038,-0.41178 0.96434,-0.67012 1.58552,-0.67658c0.62117,-0.0064 1.18687,0.24026 1.59913,0.64359c0.41178,0.4038 0.67005,0.96428 0.67651,1.58545c0.0064,0.62117 -0.24026,1.18687 -0.64359,1.59913c-0.4038,0.41178 -0.96428,0.67012 -1.58545,0.67658c-0.62117,0.0064 -1.18687,-0.24026 -1.59913,-0.64359c-0.41178,-0.4038 -0.67012,-0.96428 -0.67658,-1.58545z" fill="#ffffff" stroke="#000000"/><path d="M263.47928,186.10711c-0.00406,-0.38738 0.14979,-0.74037 0.40161,-0.997c0.25126,-0.25703 0.60103,-0.4181 0.98848,-0.42209c0.38738,-0.00406 0.74037,0.14979 0.99693,0.40161c0.2571,0.25126 0.41817,0.60103 0.42216,0.98841c0.00406,0.38745 -0.14979,0.74044 -0.40161,0.997c-0.25126,0.25703 -0.60103,0.41817 -0.98841,0.42216c-0.38745,0.00399 -0.74044,-0.14979 -0.997,-0.40161c-0.2571,-0.25133 -0.41817,-0.60103 -0.42216,-0.98848z" fill="#000000" stroke="none"/><g stroke="none"><path d="M262.74448,189.33086c0,0 -3.80492,-1.83155 -0.57133,-4.96499c0,0 1.42046,2.63256 0.57133,4.96499z" fill="#58595b"/><path d="M263.29285,186.93052c0.21475,1.86579 -0.29045,2.77933 -0.31306,2.81989c-0.09858,0.17241 -0.31877,0.23332 -0.49069,0.13522c-0.17144,-0.0981 -0.23277,-0.31588 -0.13618,-0.48877c0.0099,-0.01787 0.46547,-0.90406 0.17715,-2.73884c-0.28089,-1.76865 -0.65761,-2.17232 -0.66201,-2.17617c-0.15344,-0.12271 -0.17351,-0.34145 -0.04881,-0.4973c0.12367,-0.15591 0.3587,-0.17371 0.51462,-0.05046c0.13212,0.1047 0.58859,0.60357 0.90653,2.61049c0.02103,0.13323 0.03822,0.26219 0.05245,0.38593v0v0z" fill="#000000"/></g></g><path d="M261.61522,189.55332c0,0 0.04015,3.87683 -2.74585,6.24129c-2.06405,1.75064 -5.74558,1.26978 -7.54482,-0.94496c-1.80027,-2.2148 -1.03639,-5.8733 1.91322,-7.55486c2.35435,-1.34319 5.31627,-1.18522 5.31627,-1.18522" fill="#57595b" stroke="#000000" stroke-width="1.39668" stroke-linecap="butt" stroke-linejoin="miter"/><path d="M258.27315,179.61015c0,0 -3.86377,0.33046 -6.42938,-2.27103c-1.90099,-1.92758 -1.69592,-5.63504 0.37748,-7.59514c2.0734,-1.95955 5.77899,-1.47127 7.67709,1.34354c1.5154,2.24698 1.57974,5.21281 1.57974,5.21281" fill="#57595b" stroke="#000000" stroke-width="1.39668" stroke-linecap="butt" stroke-linejoin="miter"/><path d="M225.20201,182.95683c-3.39507,1.16961 -10.06601,2.78648 -15.46903,-2.73678c-7.42692,-7.59307 -1.0742,-20.10955 -1.01019,-20.23116c0,0 -5.64287,11.93393 1.29445,19.028c5.03277,5.14544 11.49466,3.23063 14.67498,2.1343c1.61239,0.57958 0.59381,1.7582 0.59381,1.7582c0,0 0.0002,0.01877 -0.084,0.04744v0z" fill="#58595b" stroke="#000000" stroke-width="1.39668" stroke-linecap="butt" stroke-linejoin="round"/></g></g></g></svg>