<svg version="1.1" xmlns="http://www.w3.org/2000/svg" xmlns:xlink="http://www.w3.org/1999/xlink" width="90.92379" height="83.88292" viewBox="0,0,90.92379,83.88292"><g transform="translate(-200.19767,-135.91944)"><g data-paper-data="{&quot;isPaintingLayer&quot;:true}" stroke-miterlimit="10" stroke-dasharray="" stroke-dashoffset="0" style="mix-blend-mode: normal"><path d="M200.19767,180.00003c0,-21.98222 17.82011,-39.80233 39.80233,-39.80233c21.98222,0 39.80233,17.82011 39.80233,39.80233c0,21.98222 -17.82011,39.80233 -39.80233,39.80233c-21.98222,0 -39.80233,-17.82011 -39.80233,-39.80233z" fill="#ffffff" fill-rule="nonzero" stroke="none" stroke-width="0.5" stroke-linecap="butt" stroke-linejoin="miter"/><path d="M291.12146,150.54549c0,7.41016 -10.6657,13.41727 -23.82251,13.41727c-13.15681,0 -23.82251,-6.00712 -23.82251,-13.41727c0,-7.41016 10.6657,-13.41727 23.82251,-13.41727c13.15681,0 23.82251,6.00712 23.82251,13.41727z" fill="#c3c3c3" fill-rule="nonzero" stroke="none" stroke-width="0" stroke-linecap="butt" stroke-linejoin="miter"/><text transform="translate(254.40807,157.82496) scale(0.56168,0.56168)" font-size="40" xml:space="preserve" fill="#ffffff" fill-rule="nonzero" stroke="none" stroke-width="1" stroke-linecap="butt" stroke-linejoin="miter" stroke-miterlimit="10" stroke-dasharray="" stroke-dashoffset="0" font-family="Curly" font-weight="normal" text-anchor="start" style="mix-blend-mode: normal"><tspan x="0" dy="0">50</tspan></text><g fill-rule="evenodd"><path d="M244.63541,158.24487c0.23149,-0.14239 0.60536,-0.05329 0.66966,0.25077l1.6637,8.13138c0,0 4.69132,3.71657 6.03161,6.25463c2.25889,4.23102 2.21026,7.6234 2.21026,7.6234c0,0 5.29022,1.7774 6.03711,6.10398c0.74689,4.32658 -2.86491,12.34047 -17.12792,14.60963c-14.26301,2.26915 -25.49659,-1.98837 -30.53063,-10.771c-5.03403,-8.78263 3.77698,-18.7183 3.30299,-18.13222l-1.08874,-13.54101c-0.06431,-0.30406 0.32058,-0.51625 0.61637,-0.35458l8.8967,6.28398c0,0 3.43646,-1.15657 6.98224,-1.17774c2.11461,-0.07352 3.9169,0.14324 5.63836,0.50789z" fill="#ffab19" stroke="#001026" stroke-width="1.2" stroke-linecap="butt" stroke-linejoin="miter"/><path d="M254.97363,180.7981c0,0 5.14783,1.54592 5.89473,5.8725c0.74689,4.32658 -3.15244,11.95282 -17.26204,14.15215c-18.36637,3.09962 -26.63206,-8.06395 -21.29331,-15.86383c5.34152,-7.87521 13.75321,-0.70385 20.09704,-0.92441c5.43716,-0.17829 6.21331,-4.90172 12.56359,-3.2364z" fill="#ffab19" stroke="none" stroke-width="1" stroke-linecap="butt" stroke-linejoin="miter"/><path d="M230.95153,187.99016c0.01101,-0.3013 0.32058,-0.51625 0.61913,-0.42991c1.41189,0.57961 5.43536,1.93356 9.94384,2.40014c4.05929,0.37473 6.47795,0.2369 7.61608,0.05224c0.37938,-0.06156 0.66691,0.32609 0.50249,0.6972c-0.7523,2.00898 -3.82125,7.55367 -11.71384,6.81249c-6.82702,-1.00393 -7.32866,-5.84951 -6.9677,-9.53217z" fill="#ffffff" stroke="#001026" stroke-width="1.2" stroke-linecap="round" stroke-linejoin="round"/><path d="M275.82267,181.51301c-7.0428,5.59498 -17.50994,5.36621 -17.50994,5.36621" fill="none" stroke="#333333" stroke-width="1.2" stroke-linecap="round" stroke-linejoin="round"/><path d="M277.31114,193.656c-12.80315,0.76439 -20.52997,-4.20208 -20.52997,-4.20208" fill="none" stroke="#333333" stroke-width="1.2" stroke-linecap="round" stroke-linejoin="round"/><path d="M205.13774,175.36329c0,0 12.2457,4.48823 17.12609,9.14002" fill="none" stroke="#333333" stroke-width="1.2" stroke-linecap="round" stroke-linejoin="round"/><path d="M224.61753,189.13653c-8.23428,5.20593 -21.92867,1.14174 -21.92867,1.14174" fill="none" stroke="#333333" stroke-width="1.2" stroke-linecap="round" stroke-linejoin="round"/></g></g></g></svg>